<?xml version="1.0" encoding="UTF-8" standalone="no"?><!-- Generator: Gravit.io --><svg xmlns="http://www.w3.org/2000/svg" xmlns:xlink="http://www.w3.org/1999/xlink" style="isolation:isolate" viewBox="0 0 1000 1000" width="1000pt" height="1000pt"><defs><clipPath id="_clipPath_HLE0c2awTIpcPjEGq8uFCEPBjzT90ghl"><rect width="1000" height="1000"/></clipPath></defs><g clip-path="url(#_clipPath_HLE0c2awTIpcPjEGq8uFCEPBjzT90ghl)"><circle vector-effect="non-scaling-stroke" cx="632.0558139534884" cy="184.00697674418603" r="164.87441860465117" fill="rgb(0,0,0)"/><circle vector-effect="non-scaling-stroke" cx="367.94418604651173" cy="184.00697674418603" r="164.87441860465117" fill="rgb(0,0,0)"/><rect x="203.07" y="167.598" width="593.86" height="200.819" transform="matrix(1,0,0,1,0,0)" fill="rgb(0,0,0)"/><g><rect x="164" y="348.881" width="672" height="75.014" transform="matrix(1,0,0,1,0,0)" fill="rgb(0,0,0)"/></g><path d=" M 545.642 106.321 C 585.153 46.557 655.951 23.635 703.644 55.165 C 751.337 86.696 757.98 160.815 718.47 220.579 C 678.959 280.342 608.161 303.264 560.468 271.734 C 512.775 240.203 506.132 166.084 545.642 106.321 Z " fill="rgb(38,38,38)"/><rect x="203.07" y="306.776" width="593.86" height="42.105" transform="matrix(1,0,0,1,0,0)" fill="rgb(185,0,0)"/><path d=" M 448.428 41.012 C 487.995 59.221 515.146 59.283 551.572 41.012 L 500 101.96 L 448.428 41.012 Z " fill="rgb(0,0,0)" vector-effect="non-scaling-stroke" stroke-width="1" stroke="rgb(0,0,0)" stroke-linejoin="miter" stroke-linecap="square" stroke-miterlimit="3"/><circle vector-effect="non-scaling-stroke" cx="665.6558139534883" cy="562.9837209302325" r="114.08372093023252" fill="rgb(235,235,235)" fill-opacity="0.71" stroke-width="9" stroke="rgb(0,0,0)" stroke-linejoin="miter" stroke-linecap="square" stroke-miterlimit="3"/><circle vector-effect="non-scaling-stroke" cx="334.3441860465116" cy="562.9837209302323" r="114.08372093023257" fill="rgb(235,235,235)" fill-opacity="0.71" stroke-width="9" stroke="rgb(0,0,0)" stroke-linejoin="miter" stroke-linecap="square" stroke-miterlimit="3"/><circle vector-effect="non-scaling-stroke" cx="549.0325581395349" cy="770.0534883720932" r="60.16744186046506" fill="rgb(0,0,0)"/><circle vector-effect="non-scaling-stroke" cx="450.9674418604651" cy="770.0534883720932" r="60.16744186046509" fill="rgb(0,0,0)"/><path d=" M 593.767 731.765 C 609.507 751.795 625.724 759.087 646.902 752.081 C 661.446 748.329 674.77 737.397 696.912 723.951 C 657.115 794.63 606.079 830.069 543.758 830.221 L 593.767 731.765 Z " fill="rgb(0,0,0)"/><path d=" M 406.233 731.765 C 390.493 751.795 374.276 759.087 353.098 752.081 C 338.554 748.329 325.23 737.397 303.088 723.951 C 342.885 794.63 393.921 830.069 456.242 830.221 L 406.233 731.765 Z " fill="rgb(0,0,0)"/><circle vector-effect="non-scaling-stroke" cx="500" cy="867.0441860465112" r="27.446511627906943" fill="rgb(0,0,0)"/><path d=" M 472.553 870.853 L 527.447 870.853 C 525.466 888.031 516.11 913.052 499.331 945.867 C 484.236 917.599 475.325 892.61 472.553 870.853 Z " fill="rgb(0,0,0)"/><path d=" M 452.335 561.29 C 469.668 555.903 484.213 553.213 499.381 553.214 C 514.549 553.215 530.34 555.909 547.665 561.29" fill="none" vector-effect="non-scaling-stroke" stroke-width="9" stroke="rgb(0,0,0)" stroke-linejoin="miter" stroke-linecap="square" stroke-miterlimit="3"/><rect x="779.74" y="549.176" width="20.316" height="16.152" transform="matrix(1,0,0,1,0,0)" fill="rgb(0,0,0)"/><rect x="199.944" y="554.908" width="20.316" height="16.152" transform="matrix(1,0,0,1,0,0)" fill="rgb(0,0,0)"/></g></svg>